<svg xmlns="http://www.w3.org/2000/svg" viewBox="0 0 860 358" width="860" height="358" role="img" aria-label="DeepSeek ships: pairs won, tied and lost (pairs)" font-family="Helvetica Neue, Helvetica, Arial, sans-serif"><text x="0.0" y="22.0" font-size="16" fill="#111111" text-anchor="start" font-weight="600">DeepSeek ships: pairs won, tied and lost</text><rect x="0" y="37" width="14" height="14" rx="3" fill="#1a1a1a"/><text x="20.0" y="49.0" font-size="13" fill="#666666" text-anchor="start" font-weight="400">won</text><rect x="55.6" y="37" width="14" height="14" rx="3" fill="#c9c9c9"/><text x="75.6" y="49.0" font-size="13" fill="#666666" text-anchor="start" font-weight="400">tied</text><rect x="118.4" y="37" width="14" height="14" rx="3" fill="#d83f6a"/><text x="138.4" y="49.0" font-size="13" fill="#666666" text-anchor="start" font-weight="400">lost</text><text x="136.0" y="88.0" font-size="14" fill="#111111" text-anchor="end" font-weight="400">DeepSeek Harness</text><rect x="150.0" y="75" width="338.4" height="18" rx="4" fill="#1a1a1a"/><rect x="489.9" y="75" width="168.4" height="18" rx="4" fill="#c9c9c9"/><text x="667.8" y="88.0" font-size="13" fill="#666666" text-anchor="start" font-weight="400">4-2-0</text><text x="136.0" y="124.0" font-size="14" fill="#111111" text-anchor="end" font-weight="400">Codex CLI</text><rect x="150.0" y="111" width="253.4" height="18" rx="4" fill="#1a1a1a"/><rect x="404.9" y="111" width="168.4" height="18" rx="4" fill="#c9c9c9"/><rect x="574.8" y="111" width="83.5" height="18" rx="4" fill="#d83f6a"/><text x="667.8" y="124.0" font-size="13" fill="#666666" text-anchor="start" font-weight="400">3-2-1</text><text x="136.0" y="160.0" font-size="14" fill="#111111" text-anchor="end" font-weight="400">Droid</text><rect x="150.0" y="147" width="253.4" height="18" rx="4" fill="#1a1a1a"/><rect x="404.9" y="147" width="168.4" height="18" rx="4" fill="#c9c9c9"/><rect x="574.8" y="147" width="83.5" height="18" rx="4" fill="#d83f6a"/><text x="667.8" y="160.0" font-size="13" fill="#666666" text-anchor="start" font-weight="400">3-2-1</text><text x="136.0" y="196.0" font-size="14" fill="#111111" text-anchor="end" font-weight="400">Pi</text><rect x="150.0" y="183" width="168.4" height="18" rx="4" fill="#1a1a1a"/><rect x="319.9" y="183" width="253.4" height="18" rx="4" fill="#c9c9c9"/><rect x="574.8" y="183" width="83.5" height="18" rx="4" fill="#d83f6a"/><text x="667.8" y="196.0" font-size="13" fill="#666666" text-anchor="start" font-weight="400">2-3-1</text><text x="136.0" y="232.0" font-size="14" fill="#111111" text-anchor="end" font-weight="400">oh-my-pi</text><rect x="150.0" y="219" width="168.4" height="18" rx="4" fill="#1a1a1a"/><rect x="319.9" y="219" width="253.4" height="18" rx="4" fill="#c9c9c9"/><rect x="574.8" y="219" width="83.5" height="18" rx="4" fill="#d83f6a"/><text x="667.8" y="232.0" font-size="13" fill="#666666" text-anchor="start" font-weight="400">2-3-1</text><text x="136.0" y="268.0" font-size="14" fill="#111111" text-anchor="end" font-weight="400">OpenCode</text><rect x="150.0" y="255" width="83.5" height="18" rx="4" fill="#1a1a1a"/><rect x="235.0" y="255" width="423.3" height="18" rx="4" fill="#d83f6a"/><text x="667.8" y="268.0" font-size="13" fill="#666666" text-anchor="start" font-weight="400">1-0-5</text><text x="136.0" y="304.0" font-size="14" fill="#111111" text-anchor="end" font-weight="400">Hermes Agent</text><rect x="150.0" y="291" width="508.3" height="18" rx="4" fill="#d83f6a"/><text x="667.8" y="304.0" font-size="13" fill="#666666" text-anchor="start" font-weight="400">0-0-6</text><text x="0.0" y="350.0" font-size="12" fill="#666666" text-anchor="start" font-weight="400">Each ship met every other ship once. One judge, blind, completeness first.</text></svg>
